<svg width="18" height="18" viewBox="0 0 18 18" fill="none" xmlns="http://www.w3.org/2000/svg">
<circle cx="9" cy="9" r="9" fill="#5820A0"/>
<path d="M9.0654 7.38279C9.77541 6.94144 10.2107 6.34625 10.2107 5.69139C10.2107 5.03654 9.77541 4.44134 9.0654 4C8.35538 4.44134 7.92011 5.03654 7.92011 5.69139C7.92011 6.34625 8.35538 6.94144 9.0654 7.38279Z" fill="white"/>
<path d="M9.32663 10.3562C9.13087 9.3556 9.35691 8.4376 10.055 7.82314C10.753 7.2087 11.7958 7.00972 12.9325 7.18201C13.1282 8.18257 12.9022 9.10057 12.2041 9.71503C11.5061 10.3295 10.4633 10.5285 9.32663 10.3562Z" fill="white"/>
<path d="M8.67348 10.3561C7.5368 10.5284 6.49391 10.3295 5.79586 9.715C5.09783 9.10055 4.87178 8.1826 5.06751 7.18208C6.20419 7.00975 7.24707 7.20872 7.94513 7.82319C8.64316 8.43763 8.86921 9.35558 8.67348 10.3561Z" fill="white"/>
<path d="M9.32663 13.9406C9.13087 12.94 9.35691 12.022 10.055 11.4076C10.753 10.7931 11.7958 10.5941 12.9325 10.7664C13.1282 11.767 12.9022 12.685 12.2041 13.2994C11.5061 13.9139 10.4633 14.1129 9.32663 13.9406Z" fill="white"/>
<path d="M8.67348 13.9405C7.5368 14.1128 6.49391 13.9139 5.79586 13.2994C5.09783 12.685 4.87178 11.767 5.06751 10.7665C6.20419 10.5942 7.24707 10.7931 7.94513 11.4076C8.64316 12.022 8.86921 12.94 8.67348 13.9405Z" fill="white"/>
</svg>
