<svg width="8" height="10" viewBox="0 0 8 10" fill="none" xmlns="http://www.w3.org/2000/svg">
<path d="M4.0654 3.38279C4.77541 2.94144 5.21068 2.34625 5.21068 1.69139C5.21068 1.03654 4.77541 0.441342 4.0654 0C3.35538 0.441342 2.92011 1.03654 2.92011 1.69139C2.92011 2.34625 3.35538 2.94144 4.0654 3.38279Z" fill="#5820A0"/>
<path d="M4.32663 6.35616C4.13087 5.3556 4.35691 4.4376 5.05496 3.82314C5.753 3.2087 6.79583 3.00972 7.93247 3.18201C8.12824 4.18257 7.9022 5.10057 7.20414 5.71503C6.50611 6.32947 5.46327 6.52845 4.32663 6.35616Z" fill="#5820A0"/>
<path d="M3.67348 6.35611C2.5368 6.52843 1.49391 6.32946 0.795859 5.715C0.0978255 5.10055 -0.128224 4.1826 0.0675103 3.18208C1.20419 3.00975 2.24707 3.20872 2.94513 3.82319C3.64316 4.43763 3.86921 5.35558 3.67348 6.35611Z" fill="#5820A0"/>
<path d="M4.32663 9.94057C4.13087 8.94001 4.35691 8.02202 5.05496 7.40756C5.753 6.79311 6.79583 6.59413 7.93247 6.76643C8.12824 7.76699 7.9022 8.68498 7.20414 9.29945C6.50611 9.91389 5.46327 10.1129 4.32663 9.94057Z" fill="#5820A0"/>
<path d="M3.67348 9.94052C2.5368 10.1128 1.49391 9.91387 0.795859 9.29941C0.0978255 8.68497 -0.128224 7.76701 0.0675103 6.76649C1.20419 6.59417 2.24707 6.79314 2.94513 7.4076C3.64316 8.02204 3.86921 8.94 3.67348 9.94052Z" fill="#5820A0"/>
</svg>
