<svg width="8" height="11" viewBox="0 0 8 11" fill="none" xmlns="http://www.w3.org/2000/svg">
<path fill-rule="evenodd" clip-rule="evenodd" d="M0.640965 5.34168L3.84274 0L7.22949 5.16942C7.71396 5.77594 8 6.52402 8 7.33333C8 9.35838 6.20914 11 4 11C1.79086 11 0 9.35838 0 7.33333C0 6.59904 0.235468 5.91516 0.640965 5.34168ZM4.15385 9.09615C4.15385 9.6803 3.63725 10.1538 3 10.1538C2.36275 10.1538 1.84615 9.6803 1.84615 9.09615C1.84615 8.51201 2.36275 8.03846 3 8.03846C3.63725 8.03846 4.15385 8.51201 4.15385 9.09615ZM1.69231 7.75641C2.03218 7.75641 2.30769 7.50385 2.30769 7.19231C2.30769 6.88076 2.03218 6.62821 1.69231 6.62821C1.35244 6.62821 1.07692 6.88076 1.07692 7.19231C1.07692 7.50385 1.35244 7.75641 1.69231 7.75641Z" fill="#C4C4C4"/>
</svg>
