<svg width="18" height="18" viewBox="0 0 18 18" fill="none" xmlns="http://www.w3.org/2000/svg">
<circle cx="9" cy="9" r="9" fill="#C4C4C4"/>
<path fill-rule="evenodd" clip-rule="evenodd" d="M5.64097 8.34168L8.84274 3L12.2295 8.16942C12.714 8.77594 13 9.52402 13 10.3333C13 12.3584 11.2091 14 9 14C6.79086 14 5 12.3584 5 10.3333C5 9.59904 5.23547 8.91516 5.64097 8.34168ZM9.15385 12.0962C9.15385 12.6803 8.63725 13.1538 8 13.1538C7.36275 13.1538 6.84615 12.6803 6.84615 12.0962C6.84615 11.512 7.36275 11.0385 8 11.0385C8.63725 11.0385 9.15385 11.512 9.15385 12.0962ZM6.69231 10.7564C7.03218 10.7564 7.30769 10.5039 7.30769 10.1923C7.30769 9.88076 7.03218 9.62821 6.69231 9.62821C6.35244 9.62821 6.07692 9.88076 6.07692 10.1923C6.07692 10.5039 6.35244 10.7564 6.69231 10.7564Z" fill="white"/>
</svg>
