<svg width="18" height="18" viewBox="0 0 18 18" fill="none" xmlns="http://www.w3.org/2000/svg">
<circle cx="9" cy="9" r="9" fill="#BDA2DF"/>
<path d="M14.9167 5.78571C14.9167 6.77194 14.0725 7.57143 13.0311 7.57143C12.4707 7.57143 11.9674 7.3399 11.622 6.97233L8.65665 8.32251V10.8767C9.72186 11.0159 10.5422 11.8815 10.5422 12.9286C10.5422 14.0726 9.56294 15 8.35496 15C7.14698 15 6.16772 14.0726 6.16772 12.9286C6.16772 11.8815 6.98806 11.0159 8.05327 10.8767V8.3265L4.99818 7.00563C4.78631 7.18009 4.50955 7.28571 4.20675 7.28571C3.54028 7.28571 3 6.77404 3 6.14286C3 5.51167 3.54028 5 4.20675 5C4.87322 5 5.4135 5.51167 5.4135 6.14286C5.4135 6.27757 5.38889 6.40684 5.34369 6.52686L8.35165 7.82735L11.2963 6.48658C11.1993 6.2714 11.1456 6.0345 11.1456 5.78571C11.1456 4.79949 11.9898 4 13.0311 4C14.0725 4 14.9167 4.79949 14.9167 5.78571Z" fill="white"/>
</svg>
