<svg width="12" height="11" viewBox="0 0 12 11" fill="none" xmlns="http://www.w3.org/2000/svg">
<path d="M11.9167 1.78571C11.9167 2.77194 11.0725 3.57143 10.0311 3.57143C9.47072 3.57143 8.96741 3.3399 8.62205 2.97233L5.65665 4.32251V6.87669C6.72186 7.01587 7.54219 7.88149 7.54219 8.92857C7.54219 10.0726 6.56294 11 5.35496 11C4.14698 11 3.16772 10.0726 3.16772 8.92857C3.16772 7.88149 3.98806 7.01587 5.05327 6.87669V4.3265L1.99818 3.00563C1.78631 3.18009 1.50955 3.28571 1.20675 3.28571C0.540281 3.28571 0 2.77404 0 2.14286C0 1.51167 0.540281 1 1.20675 1C1.87322 1 2.4135 1.51167 2.4135 2.14286C2.4135 2.27757 2.38889 2.40684 2.34369 2.52686L5.35165 3.82735L8.29634 2.48658C8.19929 2.2714 8.14557 2.0345 8.14557 1.78571C8.14557 0.799492 8.98976 0 10.0311 0C11.0725 0 11.9167 0.799492 11.9167 1.78571Z" fill="#BDA2DF"/>
</svg>
